<svg width="110" height="110" viewBox="0 0 110 110" fill="none" xmlns="http://www.w3.org/2000/svg">
<g filter="url(#filter0_d_422_41)">
<circle cx="55" cy="45" r="45" fill="url(#paint0_linear_422_41)"/>
<g clip-path="url(#clip0_422_41)">
<path d="M46.4854 25.4713L50.7759 25.2414L50.8721 27.0355L48.3756 27.1693L48.4718 28.9634L50.9682 28.8296L51.0643 30.6237L46.7738 30.8536L46.4854 25.4713ZM51.633 25.1955L55.9252 24.9655L56.0089 26.5266L53.5124 26.6603L53.5291 26.9715L56.0255 26.8378L56.2178 30.426L51.9256 30.656L51.8379 29.0183L54.3343 28.8845L54.3175 28.5717L51.8211 28.7054L51.633 25.1955ZM56.784 24.9194L61.0728 24.6896L61.1565 26.2507L58.6601 26.3845L58.6767 26.6957L61.1731 26.5619L61.3654 30.1501L57.0766 30.3799L56.9888 28.7423L59.4852 28.6085L59.4685 28.2956L56.9721 28.4294L56.784 24.9194Z" fill="white" fill-opacity="0.4"/>
<path fill-rule="evenodd" clip-rule="evenodd" d="M56.0968 65.0137L44.3681 62.4243L39.4135 33.7233L69.3705 32.1179L67.513 61.1806L56.0968 65.0137ZM46.8495 46.4369L47.3571 49.9615L59.6345 49.3035L59.4696 53.919L55.5759 55.1992L55.5725 55.1994L51.5711 54.3456L51.1668 51.5349L47.6102 51.7254L48.4042 57.2609L55.7684 58.8858L62.9284 56.4826L63.2819 46.5094L63.3175 45.5544L63.5723 38.3488L45.8278 39.2997L46.3405 42.8256L59.8811 42.1L59.7526 45.7455L46.8495 46.4369Z" fill="white" fill-opacity="0.4"/>
</g>
</g>
<defs>
<filter id="filter0_d_422_41" x="0" y="0" width="110" height="110" filterUnits="userSpaceOnUse" color-interpolation-filters="sRGB">
<feFlood flood-opacity="0" result="BackgroundImageFix"/>
<feColorMatrix in="SourceAlpha" type="matrix" values="0 0 0 0 0 0 0 0 0 0 0 0 0 0 0 0 0 0 127 0" result="hardAlpha"/>
<feOffset dy="10"/>
<feGaussianBlur stdDeviation="5"/>
<feComposite in2="hardAlpha" operator="out"/>
<feColorMatrix type="matrix" values="0 0 0 0 0.137255 0 0 0 0 0.137255 0 0 0 0 0.137255 0 0 0 0.25 0"/>
<feBlend mode="normal" in2="BackgroundImageFix" result="effect1_dropShadow_422_41"/>
<feBlend mode="normal" in="SourceGraphic" in2="effect1_dropShadow_422_41" result="shape"/>
</filter>
<linearGradient id="paint0_linear_422_41" x1="25.57" y1="76.59" x2="87.4" y2="14.85" gradientUnits="userSpaceOnUse">
<stop offset="0.359375" stop-color="#071E3D"/>
<stop offset="1" stop-color="#21E6C1"/>
</linearGradient>
<clipPath id="clip0_422_41">
<rect width="40" height="40" fill="white" transform="translate(34 26.1404) rotate(-3.0674)"/>
</clipPath>
</defs>
</svg>
