<svg width="90" height="90" viewBox="0 0 90 90" fill="none" xmlns="http://www.w3.org/2000/svg">
<g filter="url(#filter0_d_422_55)">
<circle cx="45" cy="35" r="35" fill="url(#paint0_linear_422_55)"/>
<path fill-rule="evenodd" clip-rule="evenodd" d="M50.2609 21C52.6936 21 54.6501 23.053 54.6501 25.568C54.6501 27.097 53.9263 28.455 52.8139 29.284C53.3872 29.7161 53.852 30.2773 54.1708 30.9226C54.4897 31.5679 54.6538 32.2794 54.6501 33C54.6501 34.53 53.9263 35.887 52.8139 36.716C53.3872 37.1481 53.852 37.7093 54.1708 38.3546C54.4897 38.9999 54.6538 39.7114 54.6501 40.432C54.6501 42.947 52.6936 45 50.2609 45C47.8293 45 45.8718 42.947 45.8718 40.432V36.57C45.103 37.2148 44.1339 37.5683 43.1329 37.569C40.7003 37.568 38.7438 35.515 38.7438 33C38.7398 32.2793 38.9038 31.5678 39.2227 30.9224C39.5416 30.2771 40.0065 29.7159 40.58 29.284C40.0066 28.8519 39.5419 28.2907 39.223 27.6454C38.9042 27.0001 38.74 26.2886 38.7438 25.568C38.7438 23.053 40.7003 21 43.1329 21H50.2609ZM53.0008 25.568C53.0008 23.977 51.7661 22.703 50.2609 22.703H47.5221V28.433H50.2609C51.7661 28.433 53.0008 27.158 53.0008 25.568ZM43.1329 28.432H45.8718V22.702H43.1329C41.6268 22.702 40.3931 23.977 40.3931 25.568C40.3931 27.158 41.6268 28.432 43.1329 28.432ZM52.9998 33C52.9998 31.41 51.7651 30.135 50.2599 30.135H47.5211V35.865H50.2609C51.7671 35.865 53.0008 34.59 53.0008 33H52.9998ZM45.8718 33C45.8718 31.41 44.6371 30.135 43.1319 30.135C41.6258 30.135 40.3921 31.409 40.3921 33C40.3921 34.59 41.6258 35.865 43.1319 35.865C44.6371 35.865 45.8708 34.591 45.8708 33H45.8718ZM52.9998 40.432C52.9998 38.842 51.7651 37.568 50.2599 37.568H47.5211V40.432C47.5211 42.023 48.7538 43.297 50.2599 43.297C51.7651 43.297 52.9998 42.023 52.9998 40.432Z" fill="white" fill-opacity="0.3"/>
</g>
<defs>
<filter id="filter0_d_422_55" x="0" y="0" width="90" height="90" filterUnits="userSpaceOnUse" color-interpolation-filters="sRGB">
<feFlood flood-opacity="0" result="BackgroundImageFix"/>
<feColorMatrix in="SourceAlpha" type="matrix" values="0 0 0 0 0 0 0 0 0 0 0 0 0 0 0 0 0 0 127 0" result="hardAlpha"/>
<feOffset dy="10"/>
<feGaussianBlur stdDeviation="5"/>
<feComposite in2="hardAlpha" operator="out"/>
<feColorMatrix type="matrix" values="0 0 0 0 0.027451 0 0 0 0 0.117647 0 0 0 0 0.239216 0 0 0 0.25 0"/>
<feBlend mode="normal" in2="BackgroundImageFix" result="effect1_dropShadow_422_55"/>
<feBlend mode="normal" in="SourceGraphic" in2="effect1_dropShadow_422_55" result="shape"/>
</filter>
<linearGradient id="paint0_linear_422_55" x1="22.11" y1="59.57" x2="70.2" y2="11.55" gradientUnits="userSpaceOnUse">
<stop offset="0.359375" stop-color="#071E3D"/>
<stop offset="1" stop-color="#21E6C1" stop-opacity="0.6"/>
</linearGradient>
</defs>
</svg>
