<svg width="101" height="105" viewBox="0 0 101 105" fill="none" xmlns="http://www.w3.org/2000/svg">
<g filter="url(#filter0_d_422_46)">
<circle cx="50.6172" cy="44.6172" r="40" transform="rotate(5.26322 50.6172 44.6172)" fill="url(#paint0_linear_422_46)"/>
<path fill-rule="evenodd" clip-rule="evenodd" d="M52.2812 29.9948C60.5073 30.5093 66.7499 37.7928 66.2312 46.2709C65.8158 53.061 61.203 58.5295 55.1603 60.1926C54.4077 60.2803 54.1567 59.8025 54.1813 59.3997C54.2036 59.0352 54.2962 57.828 54.3748 56.5429C58.0722 57.4865 59.1409 55.8975 59.4914 55.053C59.6859 54.6223 60.4951 53.3058 61.1501 52.981C61.6889 52.7258 62.4767 52.0627 61.231 51.9655C60.0596 51.873 59.1529 52.9523 58.8456 53.3952C57.3636 55.6323 55.2632 54.8463 54.4318 54.3899C54.3625 53.3844 54.0128 52.6886 53.6082 52.2782C56.9444 52.1018 60.487 50.9948 60.8461 45.1254C60.9482 43.4566 60.4557 42.0395 59.5723 40.906C59.7447 40.5317 60.362 38.9914 59.6722 36.8303C59.6722 36.8303 58.4499 36.3495 55.4816 38.1471C54.3116 37.7273 53.0566 37.4755 51.7911 37.3964C50.5255 37.3172 49.2494 37.4107 48.0372 37.6815C45.3118 35.5086 44.039 35.8526 44.039 35.8526C43.091 37.9113 43.5159 39.5167 43.6413 39.9096C42.6265 40.9244 41.9662 42.2502 41.8629 43.9381C41.5027 49.8267 44.9031 51.3487 48.1924 51.9395C47.6234 52.3853 47.1018 53.2768 47.0137 54.7154C46.8882 56.7678 46.8059 58.4185 46.7742 58.9364C46.7495 59.3392 46.441 59.8013 45.706 59.6013C42.8133 58.388 40.3647 56.2695 38.705 53.5442C37.0453 50.8188 36.2579 47.6237 36.4537 44.4085C36.9724 35.9305 44.0552 29.4804 52.2812 29.9948Z" fill="white" fill-opacity="0.3"/>
</g>
<defs>
<filter id="filter0_d_422_46" x="0.614563" y="4.6145" width="100.005" height="100.005" filterUnits="userSpaceOnUse" color-interpolation-filters="sRGB">
<feFlood flood-opacity="0" result="BackgroundImageFix"/>
<feColorMatrix in="SourceAlpha" type="matrix" values="0 0 0 0 0 0 0 0 0 0 0 0 0 0 0 0 0 0 127 0" result="hardAlpha"/>
<feOffset dy="10"/>
<feGaussianBlur stdDeviation="5"/>
<feComposite in2="hardAlpha" operator="out"/>
<feColorMatrix type="matrix" values="0 0 0 0 0.027451 0 0 0 0 0.117647 0 0 0 0 0.239216 0 0 0 0.25 0"/>
<feBlend mode="normal" in2="BackgroundImageFix" result="effect1_dropShadow_422_46"/>
<feBlend mode="normal" in="SourceGraphic" in2="effect1_dropShadow_422_46" result="shape"/>
</filter>
<linearGradient id="paint0_linear_422_46" x1="24.4572" y1="72.6972" x2="79.4172" y2="17.8172" gradientUnits="userSpaceOnUse">
<stop offset="0.359375" stop-color="#071E3D"/>
<stop offset="1" stop-color="#21E6C1" stop-opacity="0.6"/>
</linearGradient>
</defs>
</svg>
