<svg width="80" height="80" viewBox="0 0 80 80" fill="none" xmlns="http://www.w3.org/2000/svg">
<g filter="url(#filter0_d_422_59)">
<circle cx="40" cy="30" r="30" fill="url(#paint0_linear_422_59)"/>
<path d="M33.0417 25.625C33.0417 24.7962 33.3691 24.0013 33.9517 23.4153C34.5343 22.8292 35.3245 22.5 36.1484 22.5H44.8472C45.6711 22.5 46.4614 22.8292 47.044 23.4153C47.6266 24.0013 47.9539 24.7962 47.9539 25.625V34.375C47.9539 35.2038 47.6266 35.9987 47.044 36.5847C46.4614 37.1708 45.6711 37.5 44.8472 37.5H36.1484C35.3245 37.5 34.5343 37.1708 33.9517 36.5847C33.3691 35.9987 33.0417 35.2038 33.0417 34.375V25.625ZM39.8765 27.5C39.7117 27.5 39.5537 27.5658 39.4371 27.6831C39.3206 27.8003 39.2551 27.9592 39.2551 28.125V33.125C39.2551 33.2908 39.1897 33.4497 39.0732 33.5669C38.9566 33.6842 38.7986 33.75 38.6338 33.75H37.3911C37.2263 33.75 37.0683 33.8158 36.9518 33.9331C36.8352 34.0503 36.7698 34.2092 36.7698 34.375C36.7698 34.5408 36.8352 34.6997 36.9518 34.8169C37.0683 34.9342 37.2263 35 37.3911 35H38.6338C39.1282 35 39.6023 34.8025 39.9519 34.4508C40.3014 34.0992 40.4978 33.6223 40.4978 33.125V28.125C40.4978 27.9592 40.4324 27.8003 40.3158 27.6831C40.1993 27.5658 40.0413 27.5 39.8765 27.5ZM41.1192 29.375V30C41.1192 30.4973 41.3156 30.9742 41.6651 31.3258C42.0147 31.6775 42.4888 31.875 42.9832 31.875H43.6045C43.7693 31.875 43.9274 31.9408 44.0439 32.0581C44.1604 32.1753 44.2259 32.3342 44.2259 32.5V33.125C44.2259 33.2908 44.1604 33.4497 44.0439 33.5669C43.9274 33.6842 43.7693 33.75 43.6045 33.75H41.7405C41.5757 33.75 41.4177 33.8158 41.3011 33.9331C41.1846 34.0503 41.1192 34.2092 41.1192 34.375C41.1192 34.5408 41.1846 34.6997 41.3011 34.8169C41.4177 34.9342 41.5757 35 41.7405 35H43.6045C44.0989 35 44.573 34.8025 44.9226 34.4508C45.2722 34.0992 45.4685 33.6223 45.4685 33.125V32.5C45.4685 32.0027 45.2722 31.5258 44.9226 31.1742C44.573 30.8225 44.0989 30.625 43.6045 30.625H42.9832C42.8184 30.625 42.6604 30.5592 42.5438 30.4419C42.4273 30.3247 42.3618 30.1658 42.3618 30V29.375C42.3618 29.2092 42.4273 29.0503 42.5438 28.9331C42.6604 28.8158 42.8184 28.75 42.9832 28.75H44.8472C45.012 28.75 45.17 28.6842 45.2866 28.5669C45.4031 28.4497 45.4685 28.2908 45.4685 28.125C45.4685 27.9592 45.4031 27.8003 45.2866 27.6831C45.17 27.5658 45.012 27.5 44.8472 27.5H42.9832C42.4888 27.5 42.0147 27.6975 41.6651 28.0492C41.3156 28.4008 41.1192 28.8777 41.1192 29.375Z" fill="white" fill-opacity="0.3"/>
</g>
<defs>
<filter id="filter0_d_422_59" x="0" y="0" width="80" height="80" filterUnits="userSpaceOnUse" color-interpolation-filters="sRGB">
<feFlood flood-opacity="0" result="BackgroundImageFix"/>
<feColorMatrix in="SourceAlpha" type="matrix" values="0 0 0 0 0 0 0 0 0 0 0 0 0 0 0 0 0 0 127 0" result="hardAlpha"/>
<feOffset dy="10"/>
<feGaussianBlur stdDeviation="5"/>
<feComposite in2="hardAlpha" operator="out"/>
<feColorMatrix type="matrix" values="0 0 0 0 0.027451 0 0 0 0 0.117647 0 0 0 0 0.239216 0 0 0 0.25 0"/>
<feBlend mode="normal" in2="BackgroundImageFix" result="effect1_dropShadow_422_59"/>
<feBlend mode="normal" in="SourceGraphic" in2="effect1_dropShadow_422_59" result="shape"/>
</filter>
<linearGradient id="paint0_linear_422_59" x1="20.38" y1="51.06" x2="61.6" y2="9.9" gradientUnits="userSpaceOnUse">
<stop offset="0.359375" stop-color="#071E3D"/>
<stop offset="1" stop-color="#21E6C1" stop-opacity="0.6"/>
</linearGradient>
</defs>
</svg>
