<svg width="138" height="140" viewBox="0 0 138 140" fill="none" xmlns="http://www.w3.org/2000/svg">
<g filter="url(#filter0_d_422_37)">
<circle cx="68.7427" cy="69.525" r="50" transform="rotate(-31.4507 68.7427 69.525)" fill="url(#paint0_linear_422_37)"/>
<path d="M45.3778 66.3521C45.3778 63.0396 49.5014 59.9 55.8246 57.9542C54.3644 51.473 55.0127 46.3146 57.8709 44.6625C58.5634 44.2724 59.3472 44.076 60.1408 44.0938V46.3646C59.6748 46.3646 59.2999 46.4584 58.9851 46.6313C57.6078 47.4271 57.0093 50.4521 57.4753 54.3459C57.5871 55.3042 57.7694 56.3125 57.9931 57.3417C60.1105 56.8285 62.2596 56.4575 64.426 56.2313C65.7166 54.4402 67.1247 52.7378 68.6407 51.1355C65.3373 48.048 62.2368 46.3563 60.1284 46.3563V44.0834C62.9161 44.0834 66.5634 46.0813 70.2521 49.5459C73.9387 46.1042 77.588 44.125 80.3737 44.125V46.3959C78.2757 46.3959 75.1648 48.0792 71.8614 51.1459C73.2801 52.6459 74.6988 54.3459 76.0471 56.2313C78.218 56.455 80.3709 56.8295 82.4904 57.3521C82.7144 56.3767 82.8907 55.3908 83.0185 54.398C83.4949 50.5021 82.9067 47.4771 81.5377 46.673C81.2353 46.4896 80.8397 46.4063 80.3737 46.4063V44.1355C81.2229 44.1355 81.9954 44.3188 82.6623 44.7042C85.5101 46.3563 86.148 51.5021 84.6796 57.9646C90.982 59.923 95.085 63.05 95.085 66.3521C95.085 69.6646 90.9613 72.8042 84.6382 74.748C86.0983 81.2313 85.4501 86.3896 82.5919 88.0396C81.9333 88.4271 81.1628 88.6105 80.3136 88.6105C77.5259 88.6105 73.8786 86.6125 70.19 83.148C66.5033 86.5917 62.8561 88.5688 60.0683 88.5688C59.2687 88.5858 58.4789 88.3888 57.7797 87.998C54.9319 86.348 54.294 81.2021 55.7624 74.7396C49.4807 72.7938 45.3778 69.6542 45.3778 66.3521ZM58.5709 59.5542C58.9644 60.9164 59.4206 62.2595 59.9379 63.5792C60.7846 61.9225 61.7144 60.31 62.7235 58.748C61.2841 58.9625 59.8964 59.2271 58.5688 59.5542H58.5709ZM63.2102 70.4084C63.9688 71.7406 64.7835 73.0397 65.6521 74.3021C68.692 74.5716 71.7494 74.5751 74.7899 74.3125C76.5339 71.8067 78.0591 69.1537 79.3485 66.3834C78.0611 63.6065 76.5424 60.9442 74.8086 58.425C71.7694 58.155 68.7127 58.1508 65.6728 58.4125C64.8319 59.625 64.0097 60.9209 63.2206 62.2875C62.4501 63.6209 61.7501 64.975 61.1122 66.3417C61.7572 67.7249 62.4571 69.0816 63.2102 70.4084ZM59.9379 69.0834C59.3911 70.448 58.923 71.8146 58.5398 73.1396C59.8654 73.4667 61.2654 73.7417 62.7132 73.9542C61.7082 72.378 60.7819 70.7524 59.9379 69.0834ZM70.2107 79.9584C71.153 78.9792 72.0954 77.8896 73.0274 76.6959C72.1161 76.7375 71.1841 76.7688 70.2417 76.7688C69.289 76.7688 68.3466 76.748 67.425 76.6959C68.3363 77.8896 69.2787 78.9792 70.2107 79.9584ZM77.7496 73.9542C79.1461 73.7507 80.5324 73.4823 81.9043 73.15C81.5294 71.8355 81.0634 70.4792 80.5373 69.125C80.121 69.9375 79.684 70.7542 79.2077 71.5709C78.7313 72.3855 78.2467 73.1813 77.7496 73.9542ZM70.2624 52.7459C69.3201 53.725 68.3777 54.8146 67.4457 56.0084C68.357 55.9667 69.289 55.9355 70.2314 55.9355C71.1841 55.9355 72.1265 55.9563 73.0481 56.0084C72.1368 54.8146 71.1945 53.725 70.2624 52.7459ZM77.7599 58.75C78.7647 60.3228 79.691 61.945 80.5353 63.6105C81.0671 62.2822 81.5337 60.9285 81.9333 59.5542C80.6077 59.2375 79.2077 58.9625 77.7599 58.75ZM86.9288 71.5084C90.516 69.9709 92.8357 67.9521 92.8357 66.3521C92.8357 64.7521 90.516 62.723 86.9288 61.1959C86.059 60.8188 85.1062 60.4813 84.1225 60.1667C83.5446 62.1625 82.7845 64.2417 81.8442 66.373C82.732 68.3775 83.4828 70.4406 84.0914 72.548C85.0535 72.2483 86.0005 71.9013 86.9288 71.5084ZM81.4776 86.0709C82.8549 85.2792 83.4535 82.25 82.9875 78.3584C82.8756 77.4 82.6934 76.3896 82.4697 75.3605C80.4855 75.85 78.3171 76.2271 76.0368 76.473C74.7461 78.264 73.338 79.9664 71.822 81.5688C75.1255 84.6563 78.2259 86.348 80.3344 86.348C80.7321 86.3523 81.1248 86.2579 81.4776 86.073V86.0709ZM57.4442 78.3063C56.9678 82.2 57.556 85.2271 58.9251 86.0313C59.2275 86.2146 59.623 86.2959 60.089 86.2959C62.1871 86.2959 65.2979 84.6146 68.6014 81.5459C67.0917 79.9502 65.6931 78.2517 64.4156 76.4625C62.2447 76.2388 60.0918 75.8643 57.9723 75.3417C57.7383 76.3709 57.5581 77.3584 57.4442 78.3063ZM53.5443 71.5084C54.4141 71.8855 55.3669 72.223 56.3506 72.5375C56.97 70.4194 57.7311 68.346 58.6289 66.3313C57.6969 64.2125 56.9492 62.1438 56.3817 60.1563C55.4165 60.4569 54.4662 60.8039 53.5339 61.1959C49.9467 62.7334 47.627 64.7521 47.627 66.3521C47.6374 67.9521 49.9571 69.9813 53.5443 71.5084Z" fill="white" fill-opacity="0.5"/>
<path d="M70.2417 71.0105C69.0135 71.0105 67.8355 70.5197 66.967 69.6461C66.0986 68.7725 65.6106 67.5876 65.6106 66.3522C65.6106 65.1167 66.0986 63.9318 66.967 63.0582C67.8355 62.1846 69.0135 61.6938 70.2417 61.6938C71.4699 61.6938 72.6478 62.1846 73.5163 63.0582C74.3848 63.9318 74.8727 65.1167 74.8727 66.3522C74.8727 67.5876 74.3848 68.7725 73.5163 69.6461C72.6478 70.5197 71.4699 71.0105 70.2417 71.0105Z" fill="white" fill-opacity="0.5"/>
</g>
<defs>
<filter id="filter0_d_422_37" x="8.73553" y="19.5178" width="120.014" height="120.014" filterUnits="userSpaceOnUse" color-interpolation-filters="sRGB">
<feFlood flood-opacity="0" result="BackgroundImageFix"/>
<feColorMatrix in="SourceAlpha" type="matrix" values="0 0 0 0 0 0 0 0 0 0 0 0 0 0 0 0 0 0 127 0" result="hardAlpha"/>
<feOffset dy="10"/>
<feGaussianBlur stdDeviation="5"/>
<feComposite in2="hardAlpha" operator="out"/>
<feColorMatrix type="matrix" values="0 0 0 0 0.137255 0 0 0 0 0.137255 0 0 0 0 0.137255 0 0 0 0.25 0"/>
<feBlend mode="normal" in2="BackgroundImageFix" result="effect1_dropShadow_422_37"/>
<feBlend mode="normal" in="SourceGraphic" in2="effect1_dropShadow_422_37" result="shape"/>
</filter>
<linearGradient id="paint0_linear_422_37" x1="36.0427" y1="104.625" x2="104.743" y2="36.025" gradientUnits="userSpaceOnUse">
<stop offset="0.359375" stop-color="#071E3D"/>
<stop offset="1" stop-color="#21E6C1"/>
</linearGradient>
</defs>
</svg>
